<?xml version="1.0" encoding="UTF-8" standalone="no"?>
<svg
   width="190"
   height="29"
   viewBox="0 0 190 29"
   fill="none"
   version="1.1"
   id="svg2"
   sodipodi:docname="ftr4drr.svg"
   inkscape:version="1.4 (86a8ad7, 2024-10-11)"
   xmlns:inkscape="http://www.inkscape.org/namespaces/inkscape"
   xmlns:sodipodi="http://sodipodi.sourceforge.net/DTD/sodipodi-0.dtd"
   xmlns="http://www.w3.org/2000/svg"
   xmlns:svg="http://www.w3.org/2000/svg">
  <sodipodi:namedview
     id="namedview2"
     pagecolor="#ffffff"
     bordercolor="#000000"
     borderopacity="0.25"
     inkscape:showpageshadow="2"
     inkscape:pageopacity="0.0"
     inkscape:pagecheckerboard="0"
     inkscape:deskcolor="#d1d1d1"
     inkscape:zoom="7.7055556"
     inkscape:cx="57.555876"
     inkscape:cy="64.693583"
     inkscape:window-width="2880"
     inkscape:window-height="1514"
     inkscape:window-x="-11"
     inkscape:window-y="1216"
     inkscape:window-maximized="1"
     inkscape:current-layer="g2" />
  <g
     clip-path="url(#clip0_601_1591)"
     id="g2">
    <path
       d="M7.744 29H0.519997V0.985992H21.058V7.07599H7.744V11.738H20.764V17.87H7.744V29ZM38.4473 29H31.2233V7.28599H23.3693V0.985992H46.2593V7.28599H38.4473V29ZM73.5957 29H65.3217L60.6177 19.508H56.9217V29H49.6977V0.985992H63.7257C69.9417 0.985992 73.4697 5.10199 73.4697 10.31C73.4697 15.182 70.4877 17.786 67.8837 18.71L73.5957 29ZM66.1197 10.226C66.1197 8.29399 64.5237 7.07599 62.6337 7.07599H56.9217V13.376H62.6337C64.5237 13.376 66.1197 12.158 66.1197 10.226Z"
       fill="#0062AC"
       id="path1" />
    <!-- Added bolder "4" centered between paths -->
    <text
       x="72.893822"
       y="30.322104"
       font-family="Arial"
       font-size="40.4853px"
       font-weight="bold"
       fill="#0062ac"
       id="text1"
       style="font-style:normal;font-variant:normal;font-weight:900;font-stretch:normal;font-size:40.2265px;font-family:Arial;-inkscape-font-specification:'Arial, Heavy';font-variant-ligatures:normal;font-variant-caps:normal;font-variant-numeric:normal;font-variant-east-asian:normal;fill:#0062ac;stroke-width:1.67611"
       transform="scale(1.0455183,0.95646341)">4</text>
    <path
       d="m 118.93428,29 h -11.802 V 0.985992 h 11.76 c 8.82,0 15.1617,5.291998 15.1617,13.986008 0,8.694 -6.3417,14.028 -15.1197,14.028 z m -4.578,-21.71401 V 22.7 h 4.536 c 4.914,0 7.77,-3.57 7.77,-7.728 0,-4.326 -2.604,-7.68601 -7.728,-7.68601 z M 161.54598,29 h -8.274 l -4.704,-9.492 h -3.696 V 29 h -7.224 V 0.985992 h 14.028 c 6.216,0 9.744,4.115998 9.744,9.324008 0,4.872 -2.982,7.476 -5.586,8.4 z m -7.476,-18.774 c 0,-1.93201 -1.596,-3.15001 -3.486,-3.15001 h -5.712 V 13.376 h 5.712 c 1.89,0 3.486,-1.218 3.486,-3.15 z M 189.31398,29 h -8.274 l -4.704,-9.492 h -3.696 V 29 h -7.224 V 0.985992 h 14.028 c 6.216,0 9.744,4.115998 9.744,9.324008 0,4.872 -2.982,7.476 -5.586,8.4 z m -7.476,-18.774 c 0,-1.93201 -1.596,-3.15001 -3.486,-3.15001 h -5.712 V 13.376 h 5.712 c 1.89,0 3.486,-1.218 3.486,-3.15 z"
       fill="#c1391d"
       id="path2" />
  </g>
  <defs
     id="defs2">
    <clipPath
       id="clip0_601_1591">
      <rect
         width="190"
         height="29"
         fill="white"
         id="rect2" />
    </clipPath>
  </defs>
</svg>
