<svg width="160" height="29" viewBox="0 0 160 29" fill="none" xmlns="http://www.w3.org/2000/svg">
<g clip-path="url(#clip0_601_1591)">
<path d="M7.744 29H0.519997V0.985992H21.058V7.07599H7.744V11.738H20.764V17.87H7.744V29ZM38.4473 29H31.2233V7.28599H23.3693V0.985992H46.2593V7.28599H38.4473V29ZM73.5957 29H65.3217L60.6177 19.508H56.9217V29H49.6977V0.985992H63.7257C69.9417 0.985992 73.4697 5.10199 73.4697 10.31C73.4697 15.182 70.4877 17.786 67.8837 18.71L73.5957 29ZM66.1197 10.226C66.1197 8.29399 64.5237 7.07599 62.6337 7.07599H56.9217V13.376H62.6337C64.5237 13.376 66.1197 12.158 66.1197 10.226Z" fill="#0062AC"/>
<path d="M89.2673 29H77.4653V0.985992H89.2253C98.0453 0.985992 104.387 6.27799 104.387 14.972C104.387 23.666 98.0453 29 89.2673 29ZM84.6893 7.28599V22.7H89.2253C94.1393 22.7 96.9953 19.13 96.9953 14.972C96.9953 10.646 94.3913 7.28599 89.2673 7.28599H84.6893ZM131.879 29H123.605L118.901 19.508H115.205V29H107.981V0.985992H122.009C128.225 0.985992 131.753 5.10199 131.753 10.31C131.753 15.182 128.771 17.786 126.167 18.71L131.879 29ZM124.403 10.226C124.403 8.29399 122.807 7.07599 120.917 7.07599H115.205V13.376H120.917C122.807 13.376 124.403 12.158 124.403 10.226ZM159.647 29H151.373L146.669 19.508H142.973V29H135.749V0.985992H149.777C155.993 0.985992 159.521 5.10199 159.521 10.31C159.521 15.182 156.539 17.786 153.935 18.71L159.647 29ZM152.171 10.226C152.171 8.29399 150.575 7.07599 148.685 7.07599H142.973V13.376H148.685C150.575 13.376 152.171 12.158 152.171 10.226Z" fill="#C1391D"/>
</g>
<defs>
<clipPath id="clip0_601_1591">
<rect width="160" height="29" fill="white"/>
</clipPath>
</defs>
</svg>
